# xmcd
#
# Track frame offsets: 
#        150
#        18584
#        38267
#        72240
#        108302
#        132049
#        149001
#        165410
#        178548
#
# Disc length: 2604 seconds
#
# Revision: 0
# Processed by: cddbd v1.5.2PL0 Copyright (c) Steve Scherf et al.
# Submitted via: ExactAudioCopyFreeDBPlugin 1.0
#
DISCID=700a2a09
DTITLE=The Blue Poets - All It Takes
DYEAR=2019
DGENRE=Blues Rock
TTITLE0=Angry Man
TTITLE1=Could Have Lived
TTITLE2=All It Takes
TTITLE3=Crawling
TTITLE4=Been Here Too Long
TTITLE5=Bad News
TTITLE6=Mind Your Own Business
TTITLE7=Cyber Love
TTITLE8=The Day
EXTD=
EXTT0=
EXTT1=
EXTT2=
EXTT3=
EXTT4=
EXTT5=
EXTT6=
EXTT7=
EXTT8=
PLAYORDER=
